# xmcd
#
# Track frame offsets: 
#        150
#        19020
#        35507
#        56617
#        81032
#        103207
#        121022
#        130277
#        139252
#        154382
#        173680
#        188822
#        205475
#        219880
#        240982
#        258732
#        284400
#        310075
#
# Disc length: 4427 seconds
#
# Revision: 11
# Processed by: cddbd v1.5.2PL0 Copyright (c) Steve Scherf et al.
# Submitted via: ExactAudioCopy v1.0b3
#
DISCID=01114912
DTITLE=Bill Withers - The Best of Bill Withers: Lean on Me
DYEAR=2000
DGENRE=Funk - Soul
TTITLE0=Lovely Day
TTITLE1=I Want to Spend the Night
TTITLE2=Let Me Be the One You Need
TTITLE3=Hello Like Before
TTITLE4=Tender Things
TTITLE5=I Wish You Well
TTITLE6=Ain't No Sunshine
TTITLE7=Grandma's Hands
TTITLE8=The Same Love That Made Me Laugh
TTITLE9=Lean on Me
TTITLE10=Harlem
TTITLE11=Use Me
TTITLE12=Who Is He (And What Is He to You)?
TTITLE13=You Just Can't Smile It Away
TTITLE14=Just the Two of Us
TTITLE15=Steppin' Right Along
TTITLE16=You Try to Find a Love
TTITLE17=My Imagination
EXTD=
EXTT0=
EXTT1=
EXTT2=
EXTT3=
EXTT4=
EXTT5=
EXTT6=
EXTT7=
EXTT8=
EXTT9=
EXTT10=
EXTT11=
EXTT12=
EXTT13=
EXTT14=
EXTT15=
EXTT16=
EXTT17=
PLAYORDER=
